<svg xmlns="http://www.w3.org/2000/svg" width="24" height="24" viewBox="0 0 24 24" fill="none" stroke="#6a75df" stroke-width="2" stroke-linecap="round" stroke-linejoin="round" class="lucide lucide-pen-tool h-12 w-12 mx-auto" data-lov-id="src/pages/Index.tsx:62:49" data-lov-name="PenTool" data-component-path="src/pages/Index.tsx" data-component-line="62" data-component-file="Index.tsx" data-component-name="PenTool" data-component-content="%7B%22className%22%3A%22h-12%20w-12%20mx-auto%22%7D"><path d="M15.707 21.293a1 1 0 0 1-1.414 0l-1.586-1.586a1 1 0 0 1 0-1.414l5.586-5.586a1 1 0 0 1 1.414 0l1.586 1.586a1 1 0 0 1 0 1.414z"></path><path d="m18 13-1.375-6.874a1 1 0 0 0-.746-.776L3.235 2.028a1 1 0 0 0-1.207 1.207L5.35 15.879a1 1 0 0 0 .776.746L13 18"></path><path d="m2.3 2.3 7.286 7.286"></path><circle cx="11" cy="11" r="2"></circle></svg>